<?xml version="1.0" encoding="utf-8"?>
<!-- Svg Vector Icons : http://www.onlinewebfonts.com/icon -->
<svg xmlns="http://www.w3.org/2000/svg" viewBox="0 0 1000 773" xml:space="preserve">
<metadata> Svg Vector Icons : http://www.onlinewebfonts.com/icon </metadata>
<g fill="#2ab" transform="translate(0.000000,511.000000) scale(0.100000,-0.100000)"><path d="M4637.5,5070.6c-336-80.8-700.7-323-901.2-601.7l-114.6-153.7l-171.9,36.5c-114.6,23.5-263.1,31.3-435,23.5c-674.6-33.9-1226.8-390.7-1526.3-987.2c-49.5-96.4-93.8-151.1-122.4-151.1c-88.6-2.6-406.3-130.2-549.6-224c-229.2-148.5-435-382.9-549.6-622.5C131.4,2106.5,97.5,1945,100.1,1609c5.2-672,260.5-1195.5,677.2-1385.7C905,166,1045.6,22.7,2183.9-1211.9C2879.3-1967.2,3473.2-2595,3507.1-2608c83.4-31.3,190.2,0,231.8,70.3c28.7,46.9,31.3,471.4,15.6,2401.5c-18.2,2141-15.6,2349.4,23.4,2391.1c67.7,75.5,323,221.4,515.7,294.3c481.9,179.7,1028.8,182.3,1456,2.6c143.3-59.9,450.6-250,500.1-307.4c23.4-28.7,26-601.7,10.4-2380.7c-15.6-1930.1-13-2354.6,15.6-2401.5c41.7-70.3,148.5-101.6,231.8-70.3c31.3,13,633,646,1333.6,1403.9C8958.7,9.7,9130.6,184.2,9247.8,236.3c260.5,117.2,487.1,422,591.3,799.6c23.5,88.6,49.5,304.7,57.3,494.9c15.6,388.1-15.6,557.4-158.9,859.6c-213.6,450.6-520.9,685-1127.8,859.5c-15.6,5.2-72.9,91.2-125,192.7c-260.5,497.5-812.7,862.2-1380.5,909c-203.2,18.2-526.2,2.6-630.3-31.3c-39.1-13-67.7,10.4-132.8,112c-184.9,283.9-562.6,549.6-906.4,638.1C5236.6,5122.7,4843.3,5122.7,4637.5,5070.6z M5359,4664.3c343.8-88.6,632.9-351.6,765.8-698c93.8-247.4,122.4-429.8,145.9-893.4l15.6-333.4L6083.1,2841c-679.8,343.8-1456,338.6-2154.1-13c-96.4-49.5-182.3-83.3-187.5-78.1c-23.4,23.4,41.7,843.9,78.1,979.4c62.5,229.2,174.5,422,354.2,604.3C4502.1,4666.9,4908.4,4778.9,5359,4664.3z M3413.3,3929.8c5.2-5.2-10.4-106.8-31.3-226.6c-20.8-119.8-46.9-401.1-54.7-622.5c-7.8-221.4-20.8-445.4-28.7-497.5l-13-96.4l-161.5-15.6c-198-23.4-578.2-148.5-742.3-244.8c-67.7-39.1-184.9-119.8-260.5-182.3c-88.6-72.9-140.7-99-148.5-78.1c-5.2,18.2-46.9,270.9-91.2,562.6c-78.1,528.8-78.1,531.4-31.3,638.2c109.4,244.8,362.1,507.9,604.3,630.3c122.4,62.5,341.2,130.2,481.9,153.7C3014.8,3961,3397.7,3945.4,3413.3,3929.8z M7190.1,3924.6c398.5-80.7,758-343.8,937.7-682.4l85.9-161.5l-80.7-541.8c-44.3-296.9-85.9-554.8-93.8-573c-7.8-23.5-49.5,0-132.9,72.9c-242.2,213.6-661.6,390.7-1018.4,432.4l-158.9,15.6l-13,187.5c-7.8,101.6-20.8,338.6-28.6,523.5c-10.4,187.5-31.3,414.1-46.9,507.9c-41.7,229.2-41.7,218.8,59.9,237C6861.9,3971.4,6984.3,3966.2,7190.1,3924.6z M1412.9,2796.7c0-31.3,179.7-1200.8,195.3-1265.9c7.8-44.3-15.6-65.1-125-114.6c-195.3-91.2-440.2-346.4-549.6-570.4l-86-184.9L780,731.2c-138.1,148.5-229.2,419.4-263.1,786.6c-52.1,539.2,255.3,1065.3,726.7,1250.2C1394.7,2825.4,1412.9,2828,1412.9,2796.7z M8854.5,2739.4c257.8-125,479.2-388.1,586-698c132.8-393.3,28.6-1057.5-205.8-1310.2l-65.1-67.7l-101.6,203.2c-119.8,237-369.9,489.7-560,562.6c-93.8,36.5-112,52.1-101.6,99c13,62.5,195.4,1252.9,195.4,1278.9C8601.8,2833.2,8729.5,2799.3,8854.5,2739.4z M3332.6,4.5l-5.2-1419.6L2710-120.5c-367.3,765.8-619.9,1325.8-619.9,1370.1c2.6,174.5,184.9,432.4,411.5,578.2c169.3,106.8,437.6,205.8,635.6,229.2l164.1,20.8l18.2-325.6C3329.9,1572.5,3337.8,788.5,3332.6,4.5z M7018.2,2015.3c476.6-122.4,836.1-419.4,893.4-737.1c18.2-88.6-33.9-205.8-601.7-1398.7l-622.5-1302.3l-7.8,1294.5c-5.2,711.1,0,1497.7,7.8,1745.1C6708.2,2135.1,6679.6,2101.3,7018.2,2015.3z M2220.4-63.2c291.7-614.7,534-1125.2,541.8-1140.8c23.5-49.5-197.9,182.3-864.7,909c-367.3,398.5-666.8,744.9-666.8,768.4c2.6,62.5,91.2,250,171.9,356.8c65.1,83.3,231.8,218.8,270.9,218.8C1683.8,1049,1928.6,548.9,2220.4-63.2z M8448.1,981.3c114.6-78.1,265.7-291.7,310-435c26.1-86,26.1-106.8-18.2-156.3c-99-114.6-1294.5-1416.9-1393.5-1515.9l-104.2-104.2l49.5,104.2c28.6,57.3,273.5,570.4,544.4,1138.3C8106.9,582.8,8333.5,1049,8338.8,1049C8346.6,1049,8396,1017.7,8448.1,981.3z"/>
</g>
</svg>